<svg width="243" height="60" viewBox="0 0 243 60" fill="none" xmlns="http://www.w3.org/2000/svg">
<path d="M1.43566 59.3967V18.8282H13.2232V59.3967H1.43566ZM7.32943 13.1728C5.16334 13.1728 3.40025 12.5444 2.04015 11.2876C0.68005 10.0309 0 8.47248 0 6.61246C0 4.75244 0.68005 3.19405 2.04015 1.93728C3.40025 0.680511 5.16334 0.0521254 7.32943 0.0521254C9.49551 0.0521254 11.2586 0.655376 12.6187 1.86188C13.9788 3.0181 14.6589 4.52623 14.6589 6.38625C14.6589 8.3468 13.9788 9.9806 12.6187 11.2876C11.309 12.5444 9.54589 13.1728 7.32943 13.1728Z" fill="white"/>
<path d="M18.1181 28.7819V19.7331H24.3897H35.875H46.3024V28.7819H36.1772H24.3897H18.1181Z" fill="white"/>
<path d="M177.038 59.3967C177.038 59.3967 177.038 17.1693 177.038 3.44541C177.038 -1.14847 188.825 -1.14847 188.825 3.44541C188.825 15.8874 188.825 59.3967 188.825 59.3967H177.038Z" fill="white"/>
<path d="M51.2611 59.3967V18.8282C51.2611 16.3399 62.5197 16.7169 62.5197 18.8282V24.155C63.6305 22.6436 65.041 21.421 66.7512 20.4872C69.421 18.9791 76.4985 18.225 76.4985 18.225C77.3419 23.9726 77.1273 26.623 73.8539 28.9327C71.0274 30.5162 68.0105 29.8627 65.9955 31.7227C64.031 33.5324 63.0487 36.3727 63.0487 40.2436V59.3967H51.2611Z" fill="white"/>
<path fill-rule="evenodd" clip-rule="evenodd" d="M220.708 13.3236C242.4 13.3232 242.406 31.3166 242.4 31.338V59.6095C242.259 59.6138 221.02 60.2624 221.018 58.952C221.018 57.9025 225.954 55.6745 225.976 55.6642C225.949 55.6389 223.888 53.7192 222.103 53.4295C218.277 52.8091 219.181 59.6086 215.287 59.6095H199.946C196.133 59.6091 193.345 56.6649 193.439 53.4295C193.635 46.6861 196.383 42.1213 222.103 40.4119V46.854C222.103 46.854 232.794 43.9614 232.794 31.338C232.794 25.261 232.018 19.6355 220.708 19.6355C214.044 19.6356 204.554 21.1853 205.834 26.7351C206.598 30.0492 209.138 32.7146 213.116 32.7849C217.351 32.8596 212.655 24.9665 220.708 25.5518C226.131 25.9463 224.159 29.9111 223.343 32.7849C222.234 36.6902 217.829 37.9294 213.116 38.3074C205.36 38.9295 199.482 33.3001 198.553 26.7351C197.286 17.7803 210.08 13.3238 220.708 13.3236ZM208.001 44.9376C204.689 44.9378 202.005 47.6214 202.005 50.9311C202.005 54.2407 204.689 56.9228 208.001 56.923C211.313 56.923 213.998 54.2408 213.998 50.9311C213.998 47.6212 211.313 44.9376 208.001 44.9376Z" fill="white"/>
<path d="M207.138 51.1939C207.138 52.77 205.86 54.0477 204.283 54.0477C202.706 54.0477 201.427 52.77 201.427 51.1939C201.427 49.6177 202.706 48.34 204.283 48.34C205.86 48.34 207.138 49.6177 207.138 51.1939Z" fill="white"/>
<path d="M36.1772 59.3967V28.7819H24.3897V59.3967H36.1772Z" fill="white"/>
<path d="M28.47 6.98949C25.7498 9.70411 24.3897 13.3487 24.3897 17.9234V19.7331H35.875V17.9988C35.875 16.0382 36.3284 14.5804 37.2351 13.6252C38.1922 12.6198 39.5271 12.1171 41.2398 12.1171C42.1466 12.1171 43.0029 12.2428 43.8089 12.4941C44.6149 12.7455 49.5681 3.52082 49.5681 3.52082C49.5681 3.52082 45.1438 2.84216 40.1064 2.84216C35.069 2.84216 31.1902 4.2246 28.47 6.98949Z" fill="white"/>
<path fill-rule="evenodd" clip-rule="evenodd" d="M104.879 60C100.244 60 96.1641 59.0951 92.6379 57.2854C89.1621 55.4756 86.4671 53.0124 84.5529 49.8956C82.6386 46.7285 81.6815 43.1342 81.6815 39.1125C81.6815 35.0406 82.6135 31.4462 84.4773 28.3294C86.3915 25.1624 88.9858 22.6991 92.2601 20.9396C95.5344 19.1299 99.2369 18.225 103.368 18.225C107.347 18.225 110.924 19.0796 114.097 20.7888C117.321 22.4478 119.865 24.8607 121.729 28.0278C123.593 31.1446 124.525 34.8898 124.525 39.2633C124.525 39.7158 124.5 40.2436 124.449 40.8468C124.399 41.3998 124.203 42.4304 122.994 42.4304H93.5401C93.7775 43.5103 94.1568 44.5158 94.678 45.4466C95.6855 47.1056 97.0708 48.3875 98.8339 49.2923C100.647 50.1469 102.763 50.5742 105.181 50.5742C107.347 50.5742 109.236 50.2475 110.848 49.594C112.51 48.9404 114.022 47.9602 115.382 46.6531L121.653 53.4397C119.79 55.551 117.447 57.1848 114.626 58.3411C111.805 59.447 108.556 60 104.879 60ZM108.732 28.4802C110.244 29.3348 111.427 30.5413 112.284 32.0997C112.852 33.1341 113.232 34.2904 113.423 35.5684H93.4041C93.6002 34.3118 93.9744 33.1807 94.5269 32.1751C95.3833 30.5665 96.5671 29.3348 98.0783 28.4802C99.6399 27.5754 101.428 27.1229 103.443 27.1229C105.458 27.1229 107.221 27.5754 108.732 28.4802Z" fill="white"/>
<path fill-rule="evenodd" clip-rule="evenodd" d="M152.567 60C147.932 60 143.852 59.0951 140.326 57.2854C136.85 55.4756 134.155 53.0124 132.241 49.8956C130.327 46.7285 129.369 43.1342 129.369 39.1125C129.369 35.0406 130.301 31.4462 132.165 28.3294C134.079 25.1624 136.674 22.6991 139.948 20.9396C143.222 19.1299 146.925 18.225 151.055 18.225C155.035 18.225 158.612 19.0796 161.785 20.7888C165.009 22.4478 167.553 24.8607 169.417 28.0278C171.281 31.1446 172.213 34.8898 172.213 39.2633C172.213 39.7158 172.187 40.2436 172.137 40.8468C172.087 41.3998 171.891 42.4304 170.682 42.4304H141.228C141.465 43.5103 141.845 44.5158 142.366 45.4466C143.373 47.1056 144.759 48.3875 146.522 49.2923C148.335 50.1469 150.451 50.5742 152.869 50.5742C155.035 50.5742 156.924 50.2475 158.536 49.594C160.198 48.9404 161.71 47.9602 163.07 46.6531L169.341 53.4397C167.477 55.551 165.135 57.1848 162.314 58.3411C159.493 59.447 156.244 60 152.567 60ZM156.42 28.4802C157.932 29.3348 159.115 30.5413 159.972 32.0997C160.54 33.1341 160.92 34.2904 161.111 35.5684H141.092C141.288 34.3118 141.662 33.1807 142.215 32.1751C143.071 30.5665 144.255 29.3348 145.766 28.4802C147.328 27.5754 149.116 27.1229 151.131 27.1229C153.146 27.1229 154.909 27.5754 156.42 28.4802Z" fill="white"/>
</svg>
