<svg width="802" height="199" viewBox="0 0 802 199" fill="none" xmlns="http://www.w3.org/2000/svg">
<path d="M4.75 196.923V62.4228H43.75V196.923H4.75ZM24.25 43.6728C17.0833 43.6728 11.25 41.5895 6.75 37.4228C2.25 33.2562 0 28.0895 0 21.9228C0 15.7562 2.25 10.5895 6.75 6.42283C11.25 2.25615 17.0833 0.172816 24.25 0.172816C31.4167 0.172816 37.25 2.17282 41.75 6.17283C46.25 10.0062 48.5 15.0062 48.5 21.1728C48.5 27.6728 46.25 33.0895 41.75 37.4228C37.4167 41.5895 31.5833 43.6728 24.25 43.6728Z" fill="#03C96A"/>
<path d="M59.9453 95.4229V65.4229H80.6953H118.695H153.195V95.4229H119.695H80.6953H59.9453Z" fill="#03C96A"/>
<path d="M585.744 196.923C585.744 196.923 585.744 56.9229 585.744 11.4228C585.744 -3.80761 624.744 -3.80761 624.744 11.4228C624.744 52.6728 624.744 196.923 624.744 196.923H585.744Z" fill="#03C96A"/>
<path d="M169.602 196.923V62.4228C169.602 54.1729 206.852 55.4228 206.852 62.4228V80.0831C210.527 75.0723 215.193 71.0189 220.852 67.9229C229.685 62.9229 253.102 60.4228 253.102 60.4228C255.892 79.4783 255.182 88.2654 244.352 95.9229C235 101.173 225.018 99.0062 218.352 105.173C211.852 111.173 208.602 120.59 208.602 133.423V196.923H169.602Z" fill="#03C96A"/>
<path fill-rule="evenodd" clip-rule="evenodd" d="M730.23 44.1729C801.999 44.1714 802.02 103.827 801.999 103.897V197.628C801.533 197.643 731.262 199.793 731.257 195.448C731.257 191.969 747.586 184.582 747.661 184.548C747.572 184.464 740.75 178.1 734.845 177.139C722.188 175.082 725.179 197.625 712.293 197.628H661.537C648.92 197.627 639.696 187.866 640.008 177.139C640.658 154.782 649.75 139.648 734.845 133.981V155.339C734.845 155.339 770.218 145.749 770.218 103.897C770.218 83.7498 767.652 65.0991 730.23 65.0991C708.181 65.0995 676.785 70.2375 681.018 88.6371C683.548 99.6247 691.95 108.461 705.113 108.695C719.125 108.942 703.586 82.7736 730.23 84.7141C748.172 86.0219 741.649 99.1666 738.948 108.695C735.278 121.642 720.705 125.75 705.113 127.004C679.45 129.066 660.002 110.402 656.928 88.6371C652.737 58.9484 695.067 44.1736 730.23 44.1729ZM688.187 148.985C677.23 148.986 668.35 157.883 668.35 168.856C668.351 179.829 677.231 188.721 688.187 188.722C699.145 188.722 708.029 179.829 708.03 168.856C708.03 157.883 699.145 148.985 688.187 148.985Z" fill="#03C96A"/>
<path d="M685.334 169.727C685.334 174.953 681.104 179.189 675.886 179.189C670.668 179.189 666.438 174.953 666.438 169.727C666.438 164.502 670.668 160.266 675.886 160.266C681.104 160.266 685.334 164.502 685.334 169.727Z" fill="#03C96A"/>
<path d="M119.695 196.923V95.4229H80.6953V196.923H119.695Z" fill="#03C96A"/>
<path d="M94.1953 23.1728C85.1953 32.1728 80.6953 44.2562 80.6953 59.4228V65.4229H118.695V59.6728C118.695 53.1728 120.195 48.3395 123.195 45.1728C126.362 41.8395 130.779 40.1728 136.445 40.1728C139.445 40.1728 142.279 40.5895 144.945 41.4228C147.612 42.2562 164 11.6729 164 11.6729C164 11.6729 149.362 9.42283 132.695 9.42283C116.029 9.42283 103.195 14.0062 94.1953 23.1728Z" fill="#03C96A"/>
<path fill-rule="evenodd" clip-rule="evenodd" d="M347 198.923C331.667 198.923 318.167 195.923 306.5 189.923C295 183.923 286.083 175.756 279.75 165.423C273.417 154.923 270.25 143.006 270.25 129.673C270.25 116.173 273.333 104.256 279.5 93.9229C285.833 83.4229 294.417 75.2562 305.25 69.4229C316.083 63.4229 328.333 60.4229 342 60.4229C355.167 60.4229 367 63.2562 377.5 68.9229C388.167 74.4229 396.583 82.4229 402.75 92.9229C408.917 103.256 412 115.673 412 130.173C412 131.673 411.917 133.423 411.75 135.423C411.583 137.256 410.936 140.673 406.936 140.673H309.485C310.27 144.253 311.525 147.587 313.25 150.673C316.583 156.173 321.167 160.423 327 163.423C333 166.256 340 167.673 348 167.673C355.167 167.673 361.417 166.59 366.75 164.423C372.25 162.256 377.25 159.006 381.75 154.673L402.5 177.173C396.333 184.173 388.583 189.59 379.25 193.423C369.917 197.09 359.167 198.923 347 198.923ZM359.75 94.4229C364.75 97.2562 368.667 101.256 371.5 106.423C373.381 109.852 374.637 113.686 375.27 117.923H309.035C309.684 113.757 310.922 110.007 312.75 106.673C315.583 101.34 319.5 97.2562 324.5 94.4229C329.667 91.4229 335.583 89.9229 342.25 89.9229C348.917 89.9229 354.75 91.4229 359.75 94.4229Z" fill="#03C96A"/>
<path fill-rule="evenodd" clip-rule="evenodd" d="M504.779 198.923C489.446 198.923 475.946 195.923 464.279 189.923C452.779 183.923 443.863 175.756 437.529 165.423C431.196 154.923 428.029 143.006 428.029 129.673C428.029 116.173 431.113 104.256 437.279 93.9229C443.613 83.4229 452.196 75.2562 463.029 69.4229C473.863 63.4229 486.113 60.4229 499.779 60.4229C512.946 60.4229 524.779 63.2562 535.279 68.9229C545.946 74.4229 554.363 82.4229 560.529 92.9229C566.696 103.256 569.779 115.673 569.779 130.173C569.779 131.673 569.696 133.423 569.529 135.423C569.363 137.256 568.715 140.673 564.715 140.673H467.264C468.05 144.253 469.305 147.587 471.029 150.673C474.363 156.173 478.946 160.423 484.779 163.423C490.779 166.256 497.779 167.673 505.779 167.673C512.946 167.673 519.196 166.59 524.529 164.423C530.029 162.256 535.029 159.006 539.529 154.673L560.279 177.173C554.113 184.173 546.363 189.59 537.029 193.423C527.696 197.09 516.946 198.923 504.779 198.923ZM517.529 94.4229C522.529 97.2562 526.446 101.256 529.279 106.423C531.16 109.852 532.417 113.686 533.049 117.923H466.814C467.463 113.757 468.701 110.007 470.529 106.673C473.363 101.34 477.279 97.2562 482.279 94.4229C487.446 91.4229 493.363 89.9229 500.029 89.9229C506.696 89.9229 512.529 91.4229 517.529 94.4229Z" fill="#03C96A"/>
</svg>
