<svg width="432" height="411" viewBox="0 0 432 411" fill="none" xmlns="http://www.w3.org/2000/svg">
<path fill-rule="evenodd" clip-rule="evenodd" d="M240.614 6.99142e-08C431.998 -0.00385241 432.053 159.206 431.998 159.395V409.547C430.755 409.585 243.365 415.323 243.353 403.729C243.353 394.442 286.895 374.729 287.097 374.638C286.858 374.414 268.667 357.428 252.919 354.865C219.167 349.375 227.143 409.538 192.782 409.547H57.433C23.7878 409.543 -0.809369 383.492 0.0203794 354.865C1.75412 295.198 26.0013 254.808 252.919 239.682V296.683C252.919 296.683 347.249 271.089 347.249 159.395C347.249 105.624 340.405 55.8486 240.614 55.8486C181.815 55.8497 98.093 69.5621 109.381 118.668C116.127 147.992 138.534 171.576 173.635 172.197C210.999 172.859 169.563 103.019 240.614 108.198C288.459 111.688 271.064 146.769 263.863 172.197C254.075 206.752 215.212 217.717 173.635 221.061C105.199 226.566 53.3391 176.755 45.1415 118.668C33.9658 39.4335 146.846 0.00188757 240.614 6.99142e-08ZM128.5 279.727C99.2804 279.729 75.6006 303.473 75.6006 332.758C75.6023 362.042 99.2814 385.774 128.5 385.776C157.719 385.776 181.411 362.043 181.413 332.758C181.413 303.472 157.72 279.727 128.5 279.727Z" fill="#03C96A"/>
<path d="M120.89 335.083C120.89 349.029 109.61 360.335 95.695 360.335C81.7803 360.335 70.5005 349.029 70.5005 335.083C70.5005 321.137 81.7803 309.832 95.695 309.832C109.61 309.832 120.89 321.137 120.89 335.083Z" fill="#03C96A"/>
</svg>
